# xmcd
#
# Track frame offsets:
#	150
#	12654
#	24133
#	40138
#	58652
#	73369
#	87758
#	106367
#	123628
#	134880
#	151784
#	171236
#	189484
#	207393
#	224846
#	239900
#	250982
#	270867
#	286981
#	303770
#
# Disc length: 4234 seconds
#
# Revision: 0
# Processed by: cddbd v1.5.2PL0 Copyright (c) Steve Scherf et al.
# Submitted via: EasyCDDAExtractor 16.0.6.1
#
DISCID=31108814
DTITLE=Συλλογικός δίσκος - Οι χρυσές φωνές 1
DYEAR=2012
DGENRE=Ποικίλη
TTITLE0=Μητσιάς Μανώλης - Στην Ελευσίνα μιά φορά [Δήμ. Μούτσης-Βασ. Ανδρεόπουλ
TTITLE0=ος]
TTITLE1=Μοσχολιού Βίκυ - Συχνότητα [Σταμ. Κραουνάκης-Κώστας Τριπολίτης]
TTITLE2=Ψαριανός Δημήτρης - Θαλασσογραφία [Διονύσης Σαββόπουλος]
TTITLE3=Μαρινέλλα - Οδός Αριστοτέλους [Γ. Σπανός-Λ. Παπαδόπουλος]
TTITLE4=Πουλόπουλος Γιάννης - Πάμε για ύπνο Κατερίνα [Γιώργος Κατσαρός-Πυθαγόρ
TTITLE4=ας]
TTITLE5=Γλυκερία - Μέχρι να βρούμε ουρανό [Στέλ. Φωτιάδης-Σαρ. Αλιβιζάτος]
TTITLE6=Καζαντζίδης Στέλιος - Γιατί με ξύπνησες πρωΐ [Βασίλης Τσιτσάνης]
TTITLE7=Παπαδοπούλου Πίτσα - Καράβια Χιώτικα [Παντ. Θαλασσινός-Ηλίας Κατσούλης
TTITLE7=]
TTITLE8=Κουμιώτη Ρένα - Το θαλασσινό τριφύλλι [Λίνος Κόκοτος-Οδ. Ελύτης]
TTITLE9=Ξυλούρης Νίκος - Μιά παντρεμένη αγαπώ (Φιλεντέμ)[συρτός, Ν. Ξυλούρης]
TTITLE10=Μπέλλου Σωτηρία - Το μινόρε της αυγής [Σπ. Περιστέρης-Μ. Μάτσας]
TTITLE11=Παπάζογλου Νίκος - Αχ, Ελλάδα [Βάσω Αλλαγιάννη-Μαν. Ρασούλης]
TTITLE12=Τσαλιγοπούλου Ελένη - Συ μού χάραξες πορεία [Απόστολος Καλδάρας]
TTITLE13=Βιτάλη Ελένη - Ίσως φταίνε τα φεγγάρια [Ν. Μαυρουδής-Τάσος Σαμαρτζής]
TTITLE14=Καράλης Κώστας - Ιδανικός κι ανάξιος εραστής [Γ. Σπανός-Νίκος Καββαδί
TTITLE14=ας]
TTITLE15=Φαραντούρη Μαρία - Όμορφη πόλη [Μ. Θεοδωράκης-Γιάννης Θεοδωράκης]
TTITLE16=Αρλέτα - Η Σερενάτα [Λάκης Παπαδόπουλος-Μαριανίνα Κριεζή]
TTITLE17=Θηβαίος Χρήστος - Σ' ακολουθώ [ορχ. Δήμου Πατρέων, Μάνος Λοΐζος]
TTITLE18=Γιοβάννα - Σαν κι απόψε [Κώστας Γιαννίδης-Αλ. Σακελλάριος]
TTITLE19=Ζορμπαλά Μαργαρίτα - Ας σταματήσουμε ως εδώ (1946)[Κώστας Γιαννίδης-Κ
TTITLE19=ώστας Κιούσης]
EXTD=
EXTT0=
EXTT1=
EXTT2=
EXTT3=
EXTT4=
EXTT5=
EXTT6=
EXTT7=
EXTT8=
EXTT9=
EXTT10=
EXTT11=
EXTT12=
EXTT13=
EXTT14=
EXTT15=
EXTT16=
EXTT17=
EXTT18=
EXTT19=
PLAYORDER=
